<svg xmlns="http://www.w3.org/2000/svg" version="1.1" xmlns:xlink="http://www.w3.org/1999/xlink" width="1000" height="1000"><style>
    #light-icon {
      display: inline;
    }
    #dark-icon {
      display: none;
    }

    @media (prefers-color-scheme: dark) {
      #light-icon {
        display: none;
      }
      #dark-icon {
        display: inline;
      }
    }
  </style><g id="light-icon"><svg xmlns="http://www.w3.org/2000/svg" version="1.1" xmlns:xlink="http://www.w3.org/1999/xlink" width="1000" height="1000"><g><g transform="matrix(6.666666666666667,0,0,6.666666666666667,0,0)"><svg xmlns="http://www.w3.org/2000/svg" version="1.1" xmlns:xlink="http://www.w3.org/1999/xlink" width="150" height="150"><svg width="150" height="150" viewBox="0 0 150 150" fill="none" xmlns="http://www.w3.org/2000/svg">
<path d="M75 150C116.421 150 150 116.421 150 75C150 33.5786 116.421 0 75 0C33.5786 0 0 33.5786 0 75C0 116.421 33.5786 150 75 150Z" fill="#042F19"></path>
<path d="M60.9992 24.9999C60.9992 24.9999 64.0385 53.2892 73.3743 62.6249C75.2642 64.5148 77.9479 66.1362 80.9993 67.537C93.0215 73.056 110.999 74.9999 110.999 74.9999C110.999 74.9999 93.0215 76.9438 80.9993 82.4628C77.9479 83.8636 75.2642 85.485 73.3743 87.3749C64.0385 96.7106 60.9992 125 60.9992 125H80.9993C98.8623 125 115.37 115.47 124.302 99.9999C133.234 84.5299 133.234 65.4699 124.302 49.9999C115.37 34.5301 98.8623 25.0001 80.9993 24.9999H60.9992ZM60.9992 24.9999C60.9992 24.9999 57.9601 53.2891 48.6243 62.6249C39.2886 71.9606 10.9993 74.9999 10.9993 74.9999C10.9993 74.9999 39.2886 78.0392 48.6243 87.3749C57.9601 96.7106 60.9992 125 60.9992 125V24.9999Z" fill="url(#paint0_linear_11_66)"></path>
<defs>
<linearGradient id="paint0_linear_11_66" x1="10.9993" y1="74.9999" x2="131.001" y2="74.9999" gradientUnits="userSpaceOnUse">
<stop stop-color="#19624D"></stop>
<stop offset="0.5" stop-color="#47C197"></stop>
<stop offset="0.895" stop-color="#42DF88"></stop>
</linearGradient>
</defs>
</svg></svg></g></g></svg></g><g id="dark-icon"><svg xmlns="http://www.w3.org/2000/svg" version="1.1" xmlns:xlink="http://www.w3.org/1999/xlink" width="1000" height="1000"><g><g transform="matrix(6.666666666666667,0,0,6.666666666666667,0,0)"><svg xmlns="http://www.w3.org/2000/svg" version="1.1" xmlns:xlink="http://www.w3.org/1999/xlink" width="150" height="150"><svg width="150" height="150" viewBox="0 0 150 150" fill="none" xmlns="http://www.w3.org/2000/svg">
<path d="M75.0009 150C116.423 150 150.002 116.421 150.002 75C150.002 33.5786 116.423 0 75.0009 0C33.579 0 0 33.5786 0 75C0 116.421 33.579 150 75.0009 150Z" fill="url(#paint0_linear_11_63)"></path>
<path d="M61.0001 24.9999C61.0001 24.9999 64.0392 53.2892 73.3749 62.6249C75.2648 64.5148 77.9486 66.1362 80.9999 67.537C93.0221 73.056 111 74.9999 111 74.9999C111 74.9999 93.0221 76.9438 80.9999 82.4628C77.9485 83.8636 75.2648 85.485 73.3749 87.3749C64.0392 96.7107 61.0001 125 61.0001 125H80.9999C98.863 125 115.371 115.47 124.303 99.9999C133.234 84.5299 133.234 65.4699 124.303 49.9999C115.371 34.5301 98.863 25.0001 80.9999 24.9999H61.0001ZM61.0001 24.9999C61.0001 24.9999 57.9608 53.2891 48.625 62.6249C39.2893 71.9606 11 74.9999 11 74.9999C11 74.9999 39.2893 78.0392 48.625 87.3749C57.9608 96.7107 61.0001 125 61.0001 125V24.9999Z" fill="#042F19"></path>
<defs>
<linearGradient id="paint0_linear_11_63" x1="0" y1="75" x2="150.002" y2="75" gradientUnits="userSpaceOnUse">
<stop stop-color="#19624D"></stop>
<stop offset="0.5" stop-color="#47C197"></stop>
<stop offset="0.895" stop-color="#42DF88"></stop>
</linearGradient>
</defs>
</svg></svg></g></g></svg></g></svg>